<svg xmlns="http://www.w3.org/2000/svg" viewBox="0 0 1200 760">
<defs><linearGradient id="bg" x1="0" x2="1" y1="0" y2="1"><stop stop-color="#ecfdf5"/><stop offset="1" stop-color="#e0e7ff"/></linearGradient><radialGradient id="glow" cx=".78" cy=".18" r=".65"><stop stop-color="#059669" stop-opacity=".28"/><stop offset="1" stop-color="#059669" stop-opacity="0"/></radialGradient></defs>
<rect width="1200" height="760" rx="42" fill="url(#bg)"/><rect width="1200" height="760" rx="42" fill="url(#glow)"/>
<g opacity=".12" stroke="#111827" stroke-width="3" fill="none"><path d="M70 145h235l80 80h210"/><path d="M70 245h310l74 74h230"/><path d="M860 120h170l95 95"/><path d="M835 245h245"/><circle cx="995" cy="520" r="115"/><circle cx="180" cy="610" r="80"/></g>
        <g transform="translate(110 130)">
          <rect x="0" y="0" width="420" height="510" rx="28" fill="#fff" opacity=".95"/>
          <g fill="#172033" opacity=".12"><rect x="55" y="65" width="315" height="42" rx="13"/><rect x="55" y="145" width="315" height="42" rx="13"/><rect x="55" y="225" width="315" height="42" rx="13"/><rect x="55" y="305" width="315" height="42" rx="13"/><rect x="55" y="385" width="315" height="42" rx="13"/></g>
          <g fill="#059669"><circle cx="72" cy="86" r="10"/><circle cx="72" cy="166" r="10"/><circle cx="72" cy="246" r="10"/><circle cx="72" cy="326" r="10"/><circle cx="72" cy="406" r="10"/></g>
        </g>
        <g transform="translate(720 230)"><rect x="0" y="0" width="310" height="210" rx="24" fill="#fff" opacity=".92"/><path d="M50 62h210M50 112h210M50 162h135" stroke="#059669" stroke-width="18" stroke-linecap="round"/><rect x="60" y="285" width="225" height="76" rx="24" fill="#fff" opacity=".92"/></g>
<text x="70" y="688" font-family="Arial" font-size="42" font-weight="900" fill="#101827">Asset Recovery</text></svg>