<svg xmlns="http://www.w3.org/2000/svg" viewBox="0 0 1200 760" role="img" aria-label="Junk Tech Removal">
<defs>
<linearGradient id="bg" x1="0" x2="1" y1="0" y2="1"><stop stop-color="#f8fafc"/><stop offset="1" stop-color="#ddd6fe"/></linearGradient>
<radialGradient id="glow" cx=".78" cy=".18" r=".65"><stop stop-color="#7c3aed" stop-opacity=".35"/><stop offset="1" stop-color="#7c3aed" stop-opacity="0"/></radialGradient>
</defs>
<rect width="1200" height="760" rx="46" fill="url(#bg)"/>
<rect width="1200" height="760" rx="46" fill="url(#glow)"/>
<g opacity=".16" stroke="#111827" stroke-width="3" fill="none">
<path d="M70 145h235l80 80h210"/><path d="M70 245h310l74 74h230"/><path d="M860 120h170l95 95"/><path d="M835 245h245"/><circle cx="995" cy="520" r="115"/><circle cx="180" cy="610" r="80"/>
</g>

        <g transform="translate(135 230)">
          <rect x="0" y="190" width="720" height="135" rx="36" fill="#fff" opacity=".9"/>
          <circle cx="145" cy="345" r="58" fill="#111827" opacity=".22"/>
          <circle cx="565" cy="345" r="58" fill="#111827" opacity=".22"/>
          <rect x="80" y="80" width="320" height="160" rx="28" fill="#fff" opacity=".86"/>
          <rect x="430" y="20" width="210" height="220" rx="28" fill="#fff" opacity=".86"/>
        </g>
        <g transform="translate(850 240)">
          <rect x="0" y="0" width="210" height="260" rx="28" fill="#fff" opacity=".86"/>
          <path d="M55 130l50 85 50-85M55 130h100" stroke="#64748b" stroke-width="18" fill="none" stroke-linecap="round" stroke-linejoin="round"/>
        </g>
<text x="70" y="690" font-family="Arial" font-size="44" font-weight="900" fill="#111827">Junk Tech Removal</text>
<text x="72" y="727" font-family="Arial" font-size="22" font-weight="700" fill="#4b5563">Clear space and dispose responsibly</text>
</svg>